<svg width="40" height="40" viewBox="0 0 40 40" fill="none" xmlns="http://www.w3.org/2000/svg">
<g clip-path="url(#clip0_529_19160)">
<path d="M21.3118 7.54505C20.5864 6.8196 19.4083 6.8196 18.6828 7.54505L9.39711 16.8308C8.67167 17.5562 8.67167 18.7343 9.39711 19.4598C10.1226 20.1852 11.3007 20.1852 12.0261 19.4598L18.1431 13.337V31.1424C18.1431 32.1696 18.973 32.9995 20.0002 32.9995C21.0275 32.9995 21.8574 32.1696 21.8574 31.1424V13.3428L27.9743 19.454C28.6998 20.1794 29.8779 20.1794 30.6034 19.454C31.3288 18.7285 31.3288 17.5504 30.6034 16.825L21.3176 7.53924L21.3118 7.54505Z" fill="white"/>
</g>
<defs>
<clipPath id="clip0_529_19160">
<rect width="26" height="29.7143" fill="white" transform="matrix(0 -1 1 0 5.14307 33)"/>
</clipPath>
</defs>
</svg>
