<svg width="26" height="26" viewBox="0 0 26 26" fill="none" xmlns="http://www.w3.org/2000/svg">
<g clip-path="url(#clip0_205_3269)">
<g clip-path="url(#clip1_205_3269)">
<path d="M20.4883 6.93862C20.4883 6.14944 19.8475 5.50863 19.0583 5.50863L8.9568 5.50863C8.16761 5.50863 7.5268 6.14944 7.5268 6.93862C7.5268 7.72781 8.16761 8.36862 8.95679 8.36862L15.6143 8.36546L5.92949 18.0503C5.37075 18.609 5.37075 19.5119 5.92949 20.0706C6.48823 20.6293 7.39106 20.6293 7.9498 20.0706L17.6315 10.3889L17.6346 17.0401C17.6346 17.8293 18.2755 18.4701 19.0646 18.4701C19.8538 18.4701 20.4946 17.8293 20.4946 17.0401L20.4946 6.93862L20.4883 6.93862Z" fill="white"/>
</g>
</g>
<defs>
<clipPath id="clip0_205_3269">
<rect width="26" height="26" fill="white"/>
</clipPath>
<clipPath id="clip1_205_3269">
<rect width="20" height="22.8571" fill="white" transform="translate(-2.15234 11.9897) rotate(-45)"/>
</clipPath>
</defs>
</svg>
