<svg width="26" height="26" viewBox="0 0 26 26" fill="none" xmlns="http://www.w3.org/2000/svg">
<g clip-path="url(#clip0_205_3292)">
<path d="M3.94568 15.0742C4.3285 14.3594 4.21131 13.4805 3.65271 12.8945C2.82068 12.0195 2.37537 10.9688 2.37537 9.875C2.37537 7.39453 4.86756 4.875 8.62537 4.875C12.3832 4.875 14.8754 7.39453 14.8754 9.875C14.8754 12.3555 12.3832 14.875 8.62537 14.875C8.11365 14.875 7.61756 14.8242 7.14881 14.7344C6.74256 14.6562 6.32068 14.7109 5.94959 14.8984C5.78943 14.9805 5.62537 15.0586 5.4574 15.1328C4.8324 15.4141 4.17225 15.6602 3.50818 15.8359C3.61756 15.6562 3.71912 15.4805 3.81678 15.3047C3.85975 15.2305 3.90271 15.1523 3.94178 15.0742H3.94568ZM8.62537 16.75C13.1137 16.75 16.7504 13.6719 16.7504 9.875C16.7504 6.07812 13.1137 3 8.62537 3C4.13709 3 0.500371 6.07812 0.500371 9.875C0.500371 11.5078 1.17225 13.0039 2.29334 14.1836C2.25818 14.25 2.21912 14.3203 2.18396 14.3828C1.78162 15.1016 1.31287 15.8086 0.754277 16.418C0.496464 16.6914 0.430058 17.0898 0.574589 17.4297C0.726933 17.7773 1.06287 18 1.43787 18C3.11756 18 4.81678 17.4805 6.23084 16.8398C6.41834 16.7539 6.60584 16.6641 6.78553 16.5742C7.37537 16.6914 7.99256 16.75 8.62537 16.75ZM17.3754 21.75C18.0082 21.75 18.6215 21.6875 19.2152 21.5742C19.3949 21.6641 19.5824 21.7539 19.7699 21.8398C21.184 22.4805 22.8832 23 24.5629 23C24.9379 23 25.2738 22.7773 25.4222 22.4336C25.5707 22.0898 25.5004 21.6914 25.2426 21.4219C24.6879 20.8125 24.2191 20.1055 23.8129 19.3867C23.7777 19.3203 23.7387 19.2539 23.7035 19.1875C24.8285 18.0039 25.5004 16.5078 25.5004 14.875C25.5004 11.1875 22.0668 8.17578 17.7582 8.00781C17.9183 8.60156 18.0004 9.22656 18.0004 9.875V9.89844C21.4066 10.1602 23.6254 12.5352 23.6254 14.875C23.6254 15.9688 23.1801 17.0195 22.348 17.8906C21.7894 18.4766 21.6722 19.3594 22.0551 20.0703C22.098 20.1484 22.141 20.2266 22.1801 20.3008C22.2777 20.4766 22.3832 20.6523 22.4887 20.832C21.8246 20.6562 21.1644 20.4141 20.5394 20.1289C20.3715 20.0547 20.2074 19.9766 20.0472 19.8945C19.6762 19.707 19.2543 19.6523 18.848 19.7305C18.3754 19.8242 17.8793 19.8711 17.3715 19.8711C14.9613 19.8711 13.0746 18.8359 12.0277 17.4375C11.4027 17.6484 10.7465 17.8047 10.0746 17.8984C11.3988 20.1797 14.1722 21.75 17.3754 21.75Z" fill="white"/>
</g>
<defs>
<clipPath id="clip0_205_3292">
<rect width="25" height="20" fill="white" transform="translate(0.5 3)"/>
</clipPath>
</defs>
</svg>
