<svg width="26" height="26" viewBox="0 0 26 26" fill="none" xmlns="http://www.w3.org/2000/svg">
<g clip-path="url(#clip0_318_6694)">
<path d="M15.8437 3.04704C15.1797 2.85563 14.4883 3.24235 14.2969 3.90641L9.29688 21.4064C9.10547 22.0705 9.49219 22.7619 10.1563 22.9533C10.8203 23.1447 11.5117 22.758 11.7031 22.0939L16.7031 4.59391C16.8945 3.92985 16.5078 3.23844 15.8437 3.04704ZM18.9922 7.73844C18.5039 8.22672 18.5039 9.01969 18.9922 9.50797L22.4805 13.0002L18.9883 16.4923C18.5 16.9806 18.5 17.7736 18.9883 18.2619C19.4766 18.7502 20.2695 18.7502 20.7578 18.2619L25.1328 13.8869C25.6211 13.3986 25.6211 12.6056 25.1328 12.1173L20.7578 7.74235C20.2695 7.25407 19.4766 7.25407 18.9883 7.74235L18.9922 7.73844ZM7.01172 7.73844C6.52344 7.25016 5.73047 7.25016 5.24219 7.73844L0.867188 12.1134C0.378906 12.6017 0.378906 13.3947 0.867188 13.883L5.24219 18.258C5.73047 18.7463 6.52344 18.7463 7.01172 18.258C7.5 17.7697 7.5 16.9767 7.01172 16.4884L3.51953 13.0002L7.01172 9.50797C7.5 9.01969 7.5 8.22672 7.01172 7.73844Z" fill="white"/>
</g>
<defs>
<clipPath id="clip0_318_6694">
<rect width="25" height="20" fill="white" transform="translate(0.5 3)"/>
</clipPath>
</defs>
</svg>
