<svg width="26" height="26" viewBox="0 0 26 26" fill="none" xmlns="http://www.w3.org/2000/svg">
<g clip-path="url(#clip0_205_3259)">
<path d="M20.1429 16.5713H11.5714C11.1786 16.5713 10.8571 16.2499 10.8571 15.857V4.42843C10.8571 4.03557 11.1786 3.71415 11.5714 3.71415H17.8259L20.8571 6.7454V15.857C20.8571 16.2499 20.5357 16.5713 20.1429 16.5713ZM11.5714 18.7141H20.1429C21.7188 18.7141 23 17.4329 23 15.857V6.7454C23 6.17843 22.7723 5.63379 22.3705 5.232L19.3438 2.20075C18.942 1.79897 18.3973 1.57129 17.8304 1.57129H11.5714C9.99554 1.57129 8.71429 2.85254 8.71429 4.42843V15.857C8.71429 17.4329 9.99554 18.7141 11.5714 18.7141ZM5.85714 7.28557C4.28125 7.28557 3 8.56682 3 10.1427V21.5713C3 23.1472 4.28125 24.4284 5.85714 24.4284H14.4286C16.0045 24.4284 17.2857 23.1472 17.2857 21.5713V20.1427H15.1429V21.5713C15.1429 21.9641 14.8214 22.2856 14.4286 22.2856H5.85714C5.46429 22.2856 5.14286 21.9641 5.14286 21.5713V10.1427C5.14286 9.74986 5.46429 9.42843 5.85714 9.42843H7.28571V7.28557H5.85714Z" fill="white"/>
</g>
<defs>
<clipPath id="clip0_205_3259">
<rect width="20" height="22.8571" fill="white" transform="translate(3 1.57129)"/>
</clipPath>
</defs>
</svg>
