<svg width="40" height="40" viewBox="0 0 40 40" fill="none" xmlns="http://www.w3.org/2000/svg">
<g clip-path="url(#clip0_205_3554)">
<g clip-path="url(#clip1_205_3554)">
<path fill-rule="evenodd" clip-rule="evenodd" d="M0 19.9964C0 8.95819 8.95169 0 20 0C31.0491 0 40 8.96625 40 20.0036C40 31.0418 31.0483 40 20 40H18.3777V39.9278C8.09494 39.1014 0 30.489 0 19.9964ZM20.4974 36.7487C29.5227 36.4856 36.7554 29.0848 36.7554 20.0036C36.7554 10.7553 29.2547 3.24399 20 3.24399C10.7445 3.24399 3.24458 10.7489 3.24458 19.9964C3.24458 29.2434 10.7513 36.7487 20 36.7487H20.4974Z" fill="#EA4C89"/>
<path fill-rule="evenodd" clip-rule="evenodd" d="M11.9027 5.3439C11.6803 5.2739 11.4497 5.20133 11.2095 5.11985L12.252 2.04785C12.3477 2.08035 12.5202 2.13533 12.7215 2.19952C13.0832 2.31485 13.538 2.4599 13.809 2.5576L13.8235 2.56284L13.838 2.56836C13.9121 2.5967 13.9915 2.62675 14.0748 2.65826C14.4945 2.81698 15.0123 3.01281 15.4448 3.21506L15.464 3.22405L15.5497 3.26688C15.7532 3.36177 16.0588 3.50743 16.3134 3.62875C16.4563 3.69686 16.5831 3.7573 16.6667 3.79678L16.7054 3.81505L16.7431 3.83534C16.7518 3.84006 16.7622 3.84556 16.7738 3.85178C16.8615 3.89875 17.025 3.98626 17.182 4.08215L17.225 4.10846L17.2372 4.11699C17.2549 4.12729 17.2792 4.14105 17.3092 4.15773C17.3353 4.17232 17.3605 4.18619 17.3857 4.20005C17.3907 4.20276 17.3956 4.20549 17.4005 4.20821C17.4144 4.21585 17.4302 4.22455 17.4443 4.23245L17.4453 4.233C17.4525 4.23701 17.4709 4.24724 17.4921 4.25961C17.5112 4.27063 17.5407 4.28744 17.5776 4.3085C17.6904 4.37288 17.8727 4.47692 18.042 4.57604C18.2163 4.67815 18.4825 4.83542 18.6794 4.97347C18.8904 5.10304 19.1223 5.2637 19.2768 5.37067C19.3046 5.38995 19.3299 5.40748 19.3521 5.42277C19.4708 5.49507 19.5871 5.57706 19.668 5.63503C19.7837 5.71796 19.9097 5.81192 20.0246 5.8983C20.0777 5.93821 20.1262 5.97482 20.172 6.00943C20.233 6.05545 20.2893 6.09792 20.3453 6.13986C20.3916 6.1745 20.4302 6.20305 20.4613 6.22566C20.4767 6.23683 20.4887 6.24541 20.4977 6.25177C20.5053 6.25721 20.509 6.25965 20.5092 6.25977L20.5514 6.28796L20.5922 6.31896C22.3827 7.6829 23.9772 9.28533 25.3381 11.0713L25.3394 11.073L25.3407 11.0746C26.8452 13.0596 28.033 15.263 28.8568 17.6079C31.3113 24.4635 30.5895 32.3838 26.7318 38.6358L23.9704 36.9326C27.2949 31.5446 27.935 24.6547 25.8006 18.6971L25.7988 18.6922L25.7972 18.6873C25.0861 16.662 24.0593 14.7555 22.7559 13.0355C21.5767 11.4884 20.1995 10.1029 18.6585 8.92433C18.5732 8.86521 18.4787 8.79502 18.4015 8.73721C18.343 8.69346 18.2742 8.64158 18.2064 8.59039C18.1608 8.55602 18.1158 8.52202 18.0745 8.49102C17.9632 8.40727 17.862 8.33196 17.7782 8.27196C17.7035 8.21846 17.6724 8.19871 17.6726 8.1984C17.6723 8.19827 17.6727 8.1984 17.6726 8.1984L17.6247 8.1714L17.5684 8.13321C17.4855 8.07696 17.4117 8.02589 17.3441 7.97908C17.1956 7.87633 17.0767 7.79402 16.956 7.72239L16.877 7.67546L16.8037 7.61996C16.8083 7.62339 16.808 7.62321 16.8015 7.6189C16.7895 7.6109 16.7561 7.58871 16.6936 7.5499C16.6112 7.49883 16.5102 7.43852 16.4023 7.37527C16.2492 7.28565 16.1097 7.20608 15.9994 7.14315C15.948 7.11377 15.9028 7.08802 15.8657 7.06658L15.8623 7.06465C15.8566 7.06152 15.8482 7.05683 15.8356 7.04989C15.8317 7.04777 15.8275 7.04546 15.823 7.04296C15.7979 7.02921 15.7645 7.01077 15.7304 6.99183C15.6905 6.96965 15.6422 6.9424 15.5951 6.91483C15.5693 6.89977 15.5213 6.87152 15.4676 6.83665C15.4015 6.79727 15.3307 6.75921 15.2463 6.7139C15.245 6.71321 15.2438 6.71252 15.2425 6.71183C15.1416 6.66408 15.016 6.60421 14.8827 6.54058C14.6318 6.42096 14.3534 6.28827 14.1602 6.19842L14.1394 6.18875L14.0521 6.1451C13.7458 6.00309 13.379 5.86406 12.9683 5.70833C12.879 5.67447 12.7876 5.63983 12.6943 5.60419C12.4411 5.51331 12.1782 5.43058 11.9027 5.3439ZM15.8657 7.06658C15.8674 7.06758 15.8685 7.06815 15.8685 7.06815L15.8657 7.06658ZM15.8657 7.06658C15.8674 7.06758 15.8685 7.06815 15.8685 7.06815L15.8657 7.06658Z" fill="#EA4C89"/>
<path fill-rule="evenodd" clip-rule="evenodd" d="M18.7345 13.0646C23.6309 12.1805 28.1493 9.43415 31.2397 5.5249L33.7852 7.53646C30.2139 12.0542 25.0005 15.2298 19.3107 16.257C16.4776 16.7678 13.5664 16.7852 10.725 16.2642C7.89139 15.7592 5.15709 14.7419 2.68408 13.2568L4.35469 10.4759C6.4857 11.7556 8.84751 12.6349 11.2983 13.0712L11.3025 13.072L11.3068 13.0728C13.75 13.5212 16.2686 13.5092 18.7345 13.0646Z" fill="#EA4C89"/>
<path fill-rule="evenodd" clip-rule="evenodd" d="M10.0664 36.4443C12.8364 22.3098 27.241 14.5038 39.0217 17.7146L38.1683 20.8445C28.168 18.1188 15.6505 24.8211 13.2505 37.0681L10.0664 36.4443Z" fill="#EA4C89"/>
</g>
</g>
<defs>
<clipPath id="clip0_205_3554">
<rect width="40" height="40" fill="white"/>
</clipPath>
<clipPath id="clip1_205_3554">
<rect width="40" height="40" fill="white"/>
</clipPath>
</defs>
</svg>
