<svg width="26" height="26" viewBox="0 0 26 26" fill="none" xmlns="http://www.w3.org/2000/svg">
<g clip-path="url(#clip0_426_11046)">
<path d="M2.01584 3.19944C1.60959 2.87913 1.01975 2.95334 0.699438 3.35959C0.379126 3.76584 0.453345 4.35569 0.859595 4.676L23.9846 22.801C24.3908 23.1213 24.9807 23.0471 25.301 22.6408C25.6213 22.2346 25.5471 21.6448 25.1408 21.3244L21.0315 18.1057C22.5783 16.5198 23.6252 14.7424 24.1526 13.4807C24.2815 13.1721 24.2815 12.8283 24.1526 12.5198C23.5705 11.1252 22.3479 9.09397 20.5198 7.39866C18.6838 5.68772 16.1565 4.25022 13.0002 4.25022C10.3362 4.25022 8.11741 5.27756 6.38694 6.62522L2.01584 3.19944ZM7.91428 7.82053C9.32834 6.81663 11.0276 6.12522 13.0002 6.12522C15.5471 6.12522 17.6408 7.28147 19.2463 8.76975C20.7502 10.1682 21.7893 11.8283 22.3205 13.0002C21.8283 14.094 20.8908 15.6096 19.551 16.9416L17.4494 15.2932C17.8049 14.6057 18.0041 13.8283 18.0041 13.0002C18.0041 10.2385 15.7658 8.00022 13.0041 8.00022C11.7463 8.00022 10.594 8.46506 9.71506 9.23069L7.91428 7.82053ZM15.926 14.1018L12.7424 11.6057C12.9065 11.2737 13.0002 10.8948 13.0002 10.5002C13.0002 10.2854 12.9729 10.0744 12.9221 9.87522C12.9494 9.87522 12.9729 9.87522 13.0002 9.87522C14.7268 9.87522 16.1252 11.2737 16.1252 13.0002C16.1252 13.3869 16.0549 13.758 15.926 14.1018ZM16.2932 19.1916C15.2971 19.6174 14.1994 19.8752 13.0002 19.8752C10.4533 19.8752 8.35959 18.719 6.75413 17.2307C5.25022 15.8323 4.21116 14.1721 3.67991 13.0002C4.00413 12.2815 4.51975 11.3791 5.21897 10.469L3.74631 9.30881C2.85569 10.469 2.21897 11.6252 1.84788 12.5198C1.71897 12.8283 1.71897 13.1721 1.84788 13.4807C2.42991 14.8752 3.65256 16.9065 5.48069 18.6018C7.31663 20.3127 9.84397 21.7502 13.0002 21.7502C14.8674 21.7502 16.5119 21.2463 17.9299 20.4807L16.2932 19.1916ZM8.00022 13.0002C8.00022 15.7619 10.2385 18.0002 13.0002 18.0002C13.5198 18.0002 14.0198 17.9221 14.4924 17.7737L12.2971 16.0471C11.3791 15.8362 10.6135 15.219 10.1994 14.3948L8.00803 12.6682C8.00022 12.7776 7.99631 12.8869 7.99631 13.0002H8.00022Z" fill="white"/>
</g>
<defs>
<clipPath id="clip0_426_11046">
<rect width="25" height="20" fill="white" transform="translate(0.5 3)"/>
</clipPath>
</defs>
</svg>
