<svg width="26" height="26" viewBox="0 0 26 26" fill="none" xmlns="http://www.w3.org/2000/svg">
<path d="M13 5.97184C10.3965 5.97184 8.25623 7.15379 6.61508 8.67514C5.07776 10.1047 4.0156 11.8017 3.47255 12.9996C4.0156 14.1975 5.07776 15.8946 6.61109 17.3241C8.25623 18.8455 10.3965 20.0274 13 20.0274C15.6034 20.0274 17.7437 18.8455 19.3849 17.3241C20.9222 15.8946 21.9844 14.1975 22.5274 12.9996C21.9844 11.8017 20.9222 10.1047 19.3889 8.67514C17.7437 7.15379 15.6034 5.97184 13 5.97184ZM5.30935 7.27358C7.19008 5.52462 9.77359 4.05518 13 4.05518C16.2264 4.05518 18.8099 5.52462 20.6906 7.27358C22.5594 9.01056 23.8092 11.083 24.4041 12.5085C24.5359 12.8239 24.5359 13.1753 24.4041 13.4908C23.8092 14.9163 22.5594 16.9927 20.6906 18.7257C18.8099 20.4746 16.2264 21.9441 13 21.9441C9.77359 21.9441 7.19008 20.4746 5.30935 18.7257C3.4406 16.9927 2.19078 14.9163 1.5998 13.4908C1.46803 13.1753 1.46803 12.8239 1.5998 12.5085C2.19078 11.083 3.4406 9.00656 5.30935 7.27358ZM13 16.1941C14.7649 16.1941 16.1944 14.7646 16.1944 12.9996C16.1944 11.2347 14.7649 9.80518 13 9.80518C12.972 9.80518 12.9481 9.80518 12.9201 9.80518C12.972 10.0088 13 10.2244 13 10.4441C13 11.8536 11.854 12.9996 10.4444 12.9996C10.2248 12.9996 10.0092 12.9717 9.80553 12.9198C9.80553 12.9477 9.80553 12.9717 9.80553 12.9996C9.80553 14.7646 11.235 16.1941 13 16.1941ZM13 7.88851C14.3555 7.88851 15.6556 8.427 16.6141 9.38552C17.5726 10.344 18.1111 11.6441 18.1111 12.9996C18.1111 14.3552 17.5726 15.6552 16.6141 16.6137C15.6556 17.5722 14.3555 18.1107 13 18.1107C11.6444 18.1107 10.3444 17.5722 9.38588 16.6137C8.42736 15.6552 7.88887 14.3552 7.88887 12.9996C7.88887 11.6441 8.42736 10.344 9.38588 9.38552C10.3444 8.427 11.6444 7.88851 13 7.88851Z" fill="white"/>
</svg>
