<svg width="26" height="26" viewBox="0 0 26 26" fill="none" xmlns="http://www.w3.org/2000/svg">
<g clip-path="url(#clip0_205_3343)">
<path d="M1.5 5.8125C1.5 4.22676 2.78926 2.9375 4.375 2.9375H10.3092C11.1672 2.9375 11.9893 3.27891 12.5957 3.88535L14.5229 5.8125H21.625C23.2107 5.8125 24.5 7.10176 24.5 8.6875V20.1875C24.5 21.7732 23.2107 23.0625 21.625 23.0625H4.375C2.78926 23.0625 1.5 21.7732 1.5 20.1875V5.8125ZM4.375 5.09375C3.97969 5.09375 3.65625 5.41719 3.65625 5.8125V20.1875C3.65625 20.5828 3.97969 20.9062 4.375 20.9062H21.625C22.0203 20.9062 22.3438 20.5828 22.3438 20.1875V8.6875C22.3438 8.29219 22.0203 7.96875 21.625 7.96875H14.3746C13.8984 7.96875 13.4402 7.78008 13.1033 7.44316L11.0729 5.4082C10.8707 5.20605 10.5967 5.09375 10.3092 5.09375H4.375Z" fill="white"/>
</g>
<defs>
<clipPath id="clip0_205_3343">
<rect width="23" height="23" fill="white" transform="translate(1.5 1.5)"/>
</clipPath>
</defs>
</svg>
