<svg width="26" height="26" viewBox="0 0 26 26" fill="none" xmlns="http://www.w3.org/2000/svg">
<g clip-path="url(#clip0_205_3323)">
<path d="M11.6434 22.5326L11.5311 22.4293L3.66074 15.1205C2.28164 13.8402 1.5 12.0434 1.5 10.1611V10.0129C1.5 6.85039 3.74609 4.13711 6.85469 3.54414C8.62461 3.20274 10.435 3.61153 11.877 4.62676C12.2812 4.91426 12.6586 5.24668 13 5.62852C13.1887 5.41289 13.3908 5.21524 13.6064 5.03106C13.7727 4.88731 13.9434 4.75254 14.123 4.62676C15.565 3.61153 17.3754 3.20274 19.1453 3.53965C22.2539 4.13262 24.5 6.85039 24.5 10.0129V10.1611C24.5 12.0434 23.7184 13.8402 22.3393 15.1205L14.4689 22.4293L14.3566 22.5326C13.9883 22.874 13.5031 23.0672 13 23.0672C12.4969 23.0672 12.0117 22.8785 11.6434 22.5326ZM12.2408 8.01387C12.2229 8.00039 12.2094 7.98243 12.1959 7.96446L11.3963 7.06602L11.3918 7.06153C10.3541 5.89805 8.78633 5.36797 7.25898 5.65996C5.16562 6.05977 3.65625 7.8836 3.65625 10.0129V10.1611C3.65625 11.4414 4.19082 12.6678 5.12969 13.5393L13 20.8481L20.8703 13.5393C21.8092 12.6678 22.3438 11.4414 22.3438 10.1611V10.0129C22.3438 7.88809 20.8344 6.05977 18.7455 5.65996C17.2182 5.36797 15.6459 5.90254 14.6127 7.06153C14.6127 7.06153 14.6127 7.06153 14.6082 7.06602C14.6037 7.07051 14.6082 7.06602 14.6037 7.07051L13.8041 7.96895C13.7906 7.98692 13.7727 8.00039 13.7592 8.01836C13.557 8.22051 13.283 8.33282 13 8.33282C12.717 8.33282 12.443 8.22051 12.2408 8.01836V8.01387Z" fill="white"/>
</g>
<defs>
<clipPath id="clip0_205_3323">
<rect width="23" height="23" fill="white" transform="translate(1.5 1.5)"/>
</clipPath>
</defs>
</svg>
