<svg width="40" height="40" viewBox="0 0 40 40" fill="none" xmlns="http://www.w3.org/2000/svg">
<g clip-path="url(#clip0_1022_14885)">
<g clip-path="url(#clip1_1022_14885)">
<path fill-rule="evenodd" clip-rule="evenodd" d="M4.44444 40H35.5556C38.0102 40 40 38.0102 40 35.5556V4.44444C40 1.98985 38.0102 0 35.5556 0H4.44444C1.98985 0 0 1.98985 0 4.44444V35.5556C0 38.0102 1.98985 40 4.44444 40Z" fill="#007EBB"/>
<path fill-rule="evenodd" clip-rule="evenodd" d="M34.4436 34.4446H28.5078V24.3346C28.5078 21.5628 27.4546 20.0137 25.2606 20.0137C22.8739 20.0137 21.627 21.6257 21.627 24.3346V34.4446H15.9065V15.1853H21.627V17.7795C21.627 17.7795 23.3469 14.5969 27.4339 14.5969C31.519 14.5969 34.4436 17.0915 34.4436 22.2508V34.4446ZM9.0821 12.6634C7.13361 12.6634 5.55469 11.0721 5.55469 9.10956C5.55469 7.14697 7.13361 5.55566 9.0821 5.55566C11.0306 5.55566 12.6086 7.14697 12.6086 9.10956C12.6086 11.0721 11.0306 12.6634 9.0821 12.6634ZM6.12833 34.4446H12.0932V15.1853H6.12833V34.4446Z" fill="white"/>
</g>
</g>
<defs>
<clipPath id="clip0_1022_14885">
<rect width="40" height="40" fill="white"/>
</clipPath>
<clipPath id="clip1_1022_14885">
<rect width="40" height="40" fill="white"/>
</clipPath>
</defs>
</svg>
