<svg width="26" height="26" viewBox="0 0 26 26" fill="none" xmlns="http://www.w3.org/2000/svg">
<path d="M22.7425 13.4387C24.8613 11.32 24.8613 7.88871 22.7425 5.76996C20.8675 3.89496 17.9125 3.65121 15.7563 5.19246L15.6963 5.23371C15.1563 5.61996 15.0325 6.36996 15.4188 6.90621C15.805 7.44246 16.555 7.56996 17.0913 7.18371L17.1513 7.14246C18.355 6.28371 20.0013 6.41871 21.0438 7.46496C22.225 8.64621 22.225 10.5587 21.0438 11.74L16.8363 15.955C15.655 17.1362 13.7425 17.1362 12.5613 15.955C11.515 14.9087 11.38 13.2625 12.2388 12.0625L12.28 12.0025C12.6663 11.4625 12.5388 10.7125 12.0025 10.33C11.4663 9.94746 10.7125 10.0712 10.33 10.6075L10.2888 10.6675C8.74377 12.82 8.98752 15.775 10.8625 17.65C12.9813 19.7687 16.4125 19.7687 18.5313 17.65L22.7425 13.4387ZM3.25752 12.5612C1.13877 14.68 1.13877 18.1112 3.25752 20.23C5.13252 22.105 8.08752 22.3487 10.2438 20.8075L10.3038 20.7662C10.8438 20.38 10.9675 19.63 10.5813 19.0937C10.195 18.5575 9.44502 18.43 8.90877 18.8162L8.84877 18.8575C7.64502 19.7162 5.99877 19.5812 4.95627 18.535C3.77502 17.35 3.77502 15.4375 4.95627 14.2562L9.16377 10.045C10.345 8.86371 12.2575 8.86371 13.4388 10.045C14.485 11.0912 14.62 12.7375 13.7613 13.9412L13.72 14.0012C13.3338 14.5412 13.4613 15.2912 13.9975 15.6737C14.5338 16.0562 15.2875 15.9325 15.67 15.3962L15.7113 15.3362C17.2563 13.18 17.0125 10.225 15.1375 8.34996C13.0188 6.23121 9.58752 6.23121 7.46877 8.34996L3.25752 12.5612Z" fill="white"/>
</svg>
