<svg width="26" height="26" viewBox="0 0 26 26" fill="none" xmlns="http://www.w3.org/2000/svg">
<path d="M20.5 6.125C20.8438 6.125 21.125 6.40625 21.125 6.75V19.2422L20.9297 18.9883L15.6172 12.1133C15.4414 11.8828 15.1641 11.75 14.875 11.75C14.5859 11.75 14.3125 11.8828 14.1328 12.1133L10.8906 16.3086L9.69922 14.6406C9.52344 14.3945 9.24219 14.25 8.9375 14.25C8.63281 14.25 8.35156 14.3945 8.17578 14.6445L5.05078 19.0195L4.875 19.2617V19.25V6.75C4.875 6.40625 5.15625 6.125 5.5 6.125H20.5ZM5.5 4.25C4.12109 4.25 3 5.37109 3 6.75V19.25C3 20.6289 4.12109 21.75 5.5 21.75H20.5C21.8789 21.75 23 20.6289 23 19.25V6.75C23 5.37109 21.8789 4.25 20.5 4.25H5.5ZM8.625 11.75C8.87123 11.75 9.11505 11.7015 9.34253 11.6073C9.57002 11.513 9.77672 11.3749 9.95083 11.2008C10.1249 11.0267 10.263 10.82 10.3573 10.5925C10.4515 10.365 10.5 10.1212 10.5 9.875C10.5 9.62877 10.4515 9.38495 10.3573 9.15747C10.263 8.92998 10.1249 8.72328 9.95083 8.54917C9.77672 8.37506 9.57002 8.23695 9.34253 8.14273C9.11505 8.0485 8.87123 8 8.625 8C8.37877 8 8.13495 8.0485 7.90747 8.14273C7.67998 8.23695 7.47328 8.37506 7.29917 8.54917C7.12506 8.72328 6.98695 8.92998 6.89273 9.15747C6.7985 9.38495 6.75 9.62877 6.75 9.875C6.75 10.1212 6.7985 10.365 6.89273 10.5925C6.98695 10.82 7.12506 11.0267 7.29917 11.2008C7.47328 11.3749 7.67998 11.513 7.90747 11.6073C8.13495 11.7015 8.37877 11.75 8.625 11.75Z" fill="white"/>
</svg>
