<svg width="26" height="26" viewBox="0 0 26 26" fill="none" xmlns="http://www.w3.org/2000/svg">
<g clip-path="url(#clip0_205_3449)">
<path d="M3 11.7501C3 12.4415 3.55859 13.0001 4.25 13.0001C4.94141 13.0001 5.5 12.4415 5.5 11.7501C5.5 9.6798 7.17969 8.00011 9.25 8.00011H15.5V9.25011C15.5 9.75401 15.8047 10.211 16.2734 10.4064C16.7422 10.6017 17.2773 10.4923 17.6367 10.1368L20.1367 7.63683C20.625 7.14855 20.625 6.35558 20.1367 5.8673L17.6367 3.3673C17.2773 3.00792 16.7422 2.90245 16.2734 3.09776C15.8047 3.29308 15.5 3.7462 15.5 4.25011V5.50011H9.25C5.79688 5.50011 3 8.29698 3 11.7501ZM23 14.2501C23 13.5587 22.4414 13.0001 21.75 13.0001C21.0586 13.0001 20.5 13.5587 20.5 14.2501C20.5 16.3204 18.8203 18.0001 16.75 18.0001H10.5V16.7501C10.5 16.2462 10.1953 15.7892 9.72656 15.5939C9.25781 15.3985 8.72266 15.5079 8.36328 15.8634L5.86328 18.3634C5.375 18.8517 5.375 19.6446 5.86328 20.1329L8.36328 22.6329C8.72266 22.9923 9.25781 23.0978 9.72656 22.9025C10.1953 22.7071 10.5 22.254 10.5 21.7462V20.4962H16.75C20.2031 20.4962 23 17.6993 23 14.2462V14.2501Z" fill="white"/>
</g>
<defs>
<clipPath id="clip0_205_3449">
<rect width="20" height="20" fill="white" transform="translate(3 3)"/>
</clipPath>
</defs>
</svg>
