<svg width="40" height="40" viewBox="0 0 40 40" fill="none" xmlns="http://www.w3.org/2000/svg">
<g clip-path="url(#clip0_405_4083)">
<path d="M7.01016 30.8113C7.13711 32.0402 8.17305 33 9.4375 33H14.3125H30.5625C31.9082 33 33 31.9082 33 30.5625V25.6875C33 24.3418 31.9082 23.25 30.5625 23.25H28.125V27.3125C28.125 27.7594 27.7594 28.125 27.3125 28.125C26.8656 28.125 26.5 27.7594 26.5 27.3125V23.25H23.25V27.3125C23.25 27.7594 22.8844 28.125 22.4375 28.125C21.9906 28.125 21.625 27.7594 21.625 27.3125V23.25H18.375V27.3125C18.375 27.7594 18.0094 28.125 17.5625 28.125C17.1156 28.125 16.75 27.7594 16.75 27.3125V23.25H12.6875C12.2406 23.25 11.875 22.8844 11.875 22.4375C11.875 21.9906 12.2406 21.625 12.6875 21.625H16.75V18.375H12.6875C12.2406 18.375 11.875 18.0094 11.875 17.5625C11.875 17.1156 12.2406 16.75 12.6875 16.75H16.75V13.5H12.6875C12.2406 13.5 11.875 13.1344 11.875 12.6875C11.875 12.2406 12.2406 11.875 12.6875 11.875H16.75V9.4375C16.75 8.0918 15.6582 7 14.3125 7H9.4375C8.0918 7 7 8.0918 7 9.4375V25.6875V30.5625C7 30.6488 7.00508 30.7301 7.01016 30.8113Z" fill="white"/>
</g>
<defs>
<clipPath id="clip0_405_4083">
<rect width="26" height="26" fill="white" transform="translate(7 7)"/>
</clipPath>
</defs>
</svg>
