<svg width="26" height="26" viewBox="0 0 26 26" fill="none" xmlns="http://www.w3.org/2000/svg">
<g clip-path="url(#clip0_205_3353)">
<path d="M12.9956 1.88867C13.3949 1.88867 13.7595 2.11437 13.9331 2.47461L16.9106 8.60742L23.5599 9.58832C23.9505 9.64475 24.276 9.91819 24.3975 10.2958C24.5191 10.6734 24.4192 11.0814 24.1415 11.3592L19.3194 16.1421L20.4566 22.8956C20.5217 23.2862 20.3611 23.6812 20.0356 23.9156C19.71 24.15 19.2847 24.176 18.9375 23.9894L12.9913 20.8123L7.05379 23.985C6.70223 24.1717 6.27688 24.1456 5.9557 23.9112C5.63452 23.6769 5.46959 23.2819 5.53469 22.8913L6.67185 16.1378L1.8498 11.3592C1.56768 11.0814 1.47219 10.6691 1.59372 10.2958C1.71525 9.92253 2.04077 9.64909 2.43139 9.58832L9.0807 8.60742L12.0581 2.47461C12.2361 2.11437 12.5963 1.88867 12.9956 1.88867ZM12.9956 5.31749L10.717 10.0137C10.5651 10.3218 10.2743 10.5388 9.9314 10.5909L4.79685 11.3461L8.52515 15.0397C8.76386 15.2784 8.87671 15.617 8.82028 15.9512L7.93921 21.1465L12.5052 18.7072C12.8133 18.5423 13.1823 18.5423 13.4861 18.7072L18.0521 21.1465L17.1753 15.9555C17.1189 15.6213 17.2274 15.2828 17.4705 15.0441L21.1988 11.3505L16.0642 10.5909C15.7257 10.5388 15.4305 10.3262 15.2786 10.0137L12.9956 5.31749Z" fill="white"/>
</g>
<defs>
<clipPath id="clip0_205_3353">
<rect width="25" height="22.2222" fill="white" transform="translate(0.5 1.88867)"/>
</clipPath>
</defs>
</svg>
